<svg xmlns="http://www.w3.org/2000/svg" version="1.1" xmlns:xlink="http://www.w3.org/1999/xlink" xmlns:svgjs="http://svgjs.dev/svgjs" viewBox="0 0 1422 800"><defs><filter id="llleaves-blur-2" x="-100%" y="-100%" width="400%" height="400%"><feGaussianBlur in="SourceGraphic" stdDeviation="2"></feGaussianBlur></filter><filter id="llleaves-blur-3" x="-100%" y="-100%" width="400%" height="400%"><feGaussianBlur in="SourceGraphic" stdDeviation="4"></feGaussianBlur></filter><filter id="llleaves-blur-4" x="-100%" y="-100%" width="400%" height="400%"><feGaussianBlur in="SourceGraphic" stdDeviation="12"></feGaussianBlur></filter></defs><g fill="hsl(0, 0%, 0%)"><path d="M18 374H68C96 374 118 396 118 424H68C40 424 18 402 18 374Z " transform="matrix(-0.3816133609342017,-0.13140001776992127,0.13140001776992127,-0.3816133609342017,41.52110145332712,560.1989322211011)" opacity="0.62"></path><path d="M651 486H701C729 486 751 508 751 536H701C673 536 651 514 651 486Z " transform="matrix(0.14815576544490902,-0.5166805563508812,0.5166805563508812,0.14815576544490902,333.1190441278185,797.4854738596192)" opacity="0.83"></path><path d="M1315 156H1365C1393 156 1415 178 1415 206H1365C1337 206 1315 184 1315 156Z " transform="matrix(-0.25154896646480635,-0.3873514401429249,0.3873514401429249,-0.25154896646480635,1638.2537285585913,755.2650787252225)" opacity="0.71"></path><path d="M1199 486H1249C1277 486 1299 508 1299 536H1249C1221 536 1199 514 1199 486Z " transform="matrix(-0.22036092917320743,-0.4144386314243599,0.4144386314243599,-0.22036092917320743,1312.4526598794882,1141.2382854565344)" opacity="0.72"></path><path d="M942 469H992C1020 469 1042 491 1042 519H992C964 519 942 497 942 469Z " transform="matrix(-0.0864032263787567,-0.49001704691815623,0.49001704691815623,-0.0864032263787567,835.6435793901575,1022.7801043739167)" opacity="0.76"></path><path d="M8 220H58C86 220 108 242 108 270H58C30 270 8 248 8 220Z " transform="matrix(-0.3845618646821822,-0.060908615707847426,0.060908615707847426,-0.3845618646821822,65.38197730314394,342.75035655818976)" filter="url(#llleaves-blur-2)" opacity="0.60"></path><path d="M644 347H694C722 347 744 369 744 397H694C666 397 644 375 644 347Z " transform="matrix(0.14815576544490902,-0.5166805563508812,0.5166805563508812,0.14815576544490902,398.9747318187053,675.4623613620054)" opacity="0.83"></path><path d="M1190 178H1240C1268 178 1290 200 1290 228H1240C1212 228 1190 206 1190 178Z " transform="matrix(-0.2140896450901356,-0.42017458657376916,0.42017458657376916,-0.2140896450901356,1420.175718837293,767.4766853047712)" opacity="0.72"></path><path d="M605 708H655C683 708 705 730 705 758H655C627 758 605 736 605 708Z " transform="matrix(0.16683521278511945,-0.5134659878098928,0.5134659878098928,0.16683521278511945,169.35236656109532,947.0300110439873)" opacity="0.83"></path><path d="M716 604H766C794 604 816 626 816 654H766C738 654 716 632 716 604Z " transform="matrix(0.1104463687508783,-0.5196093119079442,0.5196093119079442,0.1104463687508783,354.5638243467303,957.549966977183)" opacity="0.82"></path><path d="M1147 723H1197C1225 723 1247 745 1247 773H1197C1169 773 1147 751 1147 723Z " transform="matrix(-0.20030934192395677,-0.42956476999864013,0.42956476999864013,-0.20030934192395677,1115.4558343239935,1412.020417447492)" opacity="0.73"></path><path d="M1168 334H1218C1246 334 1268 356 1268 384H1218C1190 384 1168 362 1168 334Z " transform="matrix(-0.2140896450901356,-0.42017458657376916,0.42017458657376916,-0.2140896450901356,1327.918511139802,947.6308290342095)" opacity="0.72"></path><path d="M764 274H814C842 274 864 296 864 324H814C786 324 764 302 764 274Z " transform="matrix(0.06379597350295223,-0.51957650891793,0.51957650891793,0.06379597350295223,606.7167014021359,702.8602821818124)" opacity="0.80"></path><path d="M553 277H603C631 277 653 299 653 327H603C575 327 553 305 553 277Z " transform="matrix(0.18562596970355966,-0.5100031602248989,0.5100031602248989,0.18562596970355966,337.0465858808341,553.4728627651391)" opacity="0.83"></path><path d="M479 707H529C557 707 579 729 579 757H529C501 757 479 735 479 707Z " transform="matrix(0.1761254785913792,-0.5115055307609444,0.5115055307609444,0.1761254785913792,61.4075733081491,873.66257544365)" opacity="0.83"></path><path d="M915 250H965C993 250 1015 272 1015 300H965C937 300 915 278 915 250Z " transform="matrix(-0.0611532450318022,-0.49805321273381464,0.49805321273381464,-0.0611532450318022,887.0482479538902,772.4384926718767)" opacity="0.77"></path><path d="M954 131H1004C1032 131 1054 153 1054 181H1004C976 181 954 159 954 131Z " transform="matrix(-0.04405642072466376,-0.5035671931553651,0.5035671931553651,-0.04405642072466376,969.6761642753255,668.4542635610343)" opacity="0.78"></path><path d="M875 609H925C953 609 975 631 975 659H925C897 659 875 637 875 609Z " transform="matrix(-0.03530554577684498,-0.5048928271657233,0.5048928271657233,-0.03530554577684498,637.555577420513,1123.4095811508137)" opacity="0.78"></path><path d="M731 719H781C809 719 831 741 831 769H781C753 769 731 747 731 719Z " transform="matrix(0.09159747755000998,-0.5194751091522141,0.5194751091522141,0.09159747755000998,322.97288882419497,1081.5615369506718)" opacity="0.81"></path><path d="M515 428H565C593 428 615 450 615 478H565C537 478 515 456 515 428Z " transform="matrix(0.18572617137541386,-0.5102784620557099,0.5102784620557099,0.18572617137541386,228.90856986165454,657.1733754284137)" opacity="0.83"></path><path d="M425 286H475C503 286 525 308 525 336H475C447 336 425 314 425 286Z " transform="matrix(0.1574445420104921,-0.5149778925010544,0.5149778925010544,0.1574445420104921,240.05571797718835,506.6492463727378)" opacity="0.83"></path><path d="M242 721H292C320 721 342 743 342 771H292C264 771 242 749 242 721Z " transform="matrix(-0.11893048311482522,-0.47700411409314764,0.47700411409314764,-0.11893048311482522,-29.117368043959175,974.0073417188587)" opacity="0.76"></path><path d="M315 518H365C393 518 415 540 415 568H365C337 568 315 546 315 518Z " transform="matrix(0.03613495781513869,-0.5167539719146634,0.5167539719146634,0.03613495781513869,71.21333364781219,711.9939176552318)" opacity="0.80"></path><path d="M779 35H829C857 35 879 57 879 85H829C801 85 779 63 779 35Z " transform="matrix(0.20449498070451133,-0.5061428383313552,0.5061428383313552,0.20449498070451133,629.1050906960788,467.32271413442277)" opacity="0.84"></path><path d="M1305 713H1355C1383 713 1405 735 1405 763H1355C1327 763 1305 741 1305 713Z " transform="matrix(-0.24570092006512123,-0.39320366619736846,0.39320366619736846,-0.24570092006512123,1397.7404410345814,1452.1182467054937)" opacity="0.71"></path><path d="M10 512H60C88 512 110 534 110 562H60C32 562 10 540 10 512Z " transform="matrix(-0.3816133609342017,-0.13140001776992127,0.13140001776992127,-0.3816133609342017,12.334992113604372,749.8103758878617)" opacity="0.62"></path><path d="M434 562H484C512 562 534 584 534 612H484C456 612 434 590 434 562Z " transform="matrix(0.1574445420104921,-0.5149778925010544,0.5149778925010544,0.1574445420104921,105.50481876880286,743.8293538103514)" opacity="0.83"></path><path d="M1000 712H1050C1078 712 1100 734 1100 762H1050C1022 762 1000 740 1000 712Z " transform="matrix(-0.12673243745949878,-0.4729718955658949,0.4729718955658949,-0.12673243745949878,834.4887723004092,1327.0222967518403)" opacity="0.75"></path><path d="M1308 419H1358C1386 419 1408 441 1408 469H1358C1330 469 1308 447 1308 419Z " transform="matrix(-0.24570092006512123,-0.39320366619736846,0.39320366619736846,-0.24570092006512123,1517.079421656803,1087.0617872049402)" opacity="0.71"></path><path d="M617 39H667C695 39 717 61 717 89H667C639 89 617 67 617 39Z " transform="matrix(0.2607759486876733,-0.4904482282227047,0.4904482282227047,0.2607759486876733,461.67375561906886,374.4393075085329)" opacity="0.85"></path><path d="M134 312H184C212 312 234 334 234 362H184C156 362 134 340 134 312Z " transform="matrix(-0.2688431466211856,-0.3700308464519806,0.3700308464519806,-0.2688431466211856,108.76674372398068,495.68581615850394)" opacity="0.70"></path><path d="M1078 459H1128C1156 459 1178 481 1178 509H1128C1100 509 1078 487 1078 459Z " transform="matrix(-0.17961874791999996,-0.44457200160388716,0.44457200160388716,-0.17961874791999996,1115.4370988774785,1072.4126918024647)" opacity="0.74"></path><path d="M358 692H408C436 692 458 714 458 742H408C380 742 358 720 358 692Z " transform="matrix(0.0730333355756471,-0.5196591846796849,0.5196591846796849,0.0730333355756471,5.606763669801921,876.6560457415725)" opacity="0.81"></path><path d="M360 168H410C438 168 460 190 460 218H410C382 218 360 196 360 168Z " transform="matrix(0.0730333355756471,-0.5196591846796849,0.5196591846796849,0.0730333355756471,279.7621097708055,391.9648319525709)" opacity="0.81"></path></g><g fill="none" stroke-width="3" stroke="hsl(0, 0%, 0%)"><path d="M14 49H64C92 49 114 71 114 99H64C36 99 14 77 14 49Z " transform="matrix(-0.38272556219949333,-0.1317829793770969,0.1317829793770969,-0.38272556219949333,78.7424955068624,110.75580228289671)" opacity="0.62"></path><path d="M1283 35H1333C1361 35 1383 57 1383 85H1333C1305 85 1283 63 1283 35Z " transform="matrix(-0.10258622794578193,-0.4826302568115446,0.4826302568115446,-0.10258622794578193,1440.7896264430346,709.5013060065359)" opacity="0.76"></path><path d="M951 26H1001C1029 26 1051 48 1051 76H1001C973 76 951 54 951 26Z " transform="matrix(0.11979549456023778,-0.5188912945356089,0.5188912945356089,0.11979549456023778,854.6212539238859,564.3006156075724)" opacity="0.82"></path><path d="M877 368H927C955 368 977 390 977 418H927C899 418 877 396 877 368Z " transform="matrix(-0.03530554577684498,-0.5048928271657233,0.5048928271657233,-0.03530554577684498,761.3053598590061,874.9107302729255)" opacity="0.78"></path><path d="M812 152H862C890 152 912 174 912 202H862C834 202 812 180 812 152Z " transform="matrix(0.05456075795696831,-0.5191109361012238,0.5191109361012238,0.05456075795696831,723.0859909511767,614.8163727608716)" opacity="0.80"></path><path d="M112 563H162C190 563 212 585 212 613H162C134 613 112 591 112 563Z " transform="matrix(-0.3088614656457192,-0.31983541043792657,0.31983541043792657,-0.3088614656457192,23.972336097105682,821.4238782906269)" opacity="0.68"></path><path d="M1105 600H1155C1183 600 1205 622 1205 650H1155C1127 650 1105 628 1105 600Z " transform="matrix(-0.17961874791999996,-0.44457200160388716,0.44457200160388716,-0.17961874791999996,1084.6021528451704,1250.7423793024896)" opacity="0.74"></path><path d="M280 318H330C358 318 380 340 380 368H330C302 368 280 346 280 318Z " transform="matrix(-0.01780583647448566,-0.5098924431975385,0.5098924431975385,-0.01780583647448566,160.98281801982458,517.3719081659364)" opacity="0.78"></path><path d="M1220 624H1270C1298 624 1320 646 1320 674H1270C1242 674 1220 652 1220 624Z " transform="matrix(-0.22036092917320743,-0.4144386314243599,0.4144386314243599,-0.22036092917320743,1280.887708255564,1318.3513049423486)" opacity="0.72"></path><path d="M119 707H169C197 707 219 729 219 757H169C141 757 119 735 119 707Z " transform="matrix(-0.3088614656457192,-0.31983541043792657,0.31983541043792657,-0.3088614656457192,-12.921932746435715,1012.1387772166761)" opacity="0.68"></path><path d="M1302 288H1352C1380 288 1402 310 1402 338H1352C1324 338 1302 316 1302 288Z " transform="matrix(-0.24570092006512123,-0.39320366619736846,0.39320366619736846,-0.24570092006512123,1561.1148964082677,921.5157446792251)" opacity="0.71"></path><path d="M1023 339H1073C1101 339 1123 361 1123 389H1073C1045 389 1023 367 1023 339Z " transform="matrix(-0.14209813819746597,-0.46478206740490224,0.46478206740490224,-0.14209813819746597,1056.2906297504965,914.4348806293377)" opacity="0.75"></path><path d="M162 36H212C240 36 262 58 262 86H212C184 86 162 64 162 36Z " transform="matrix(-0.2075557781713961,-0.4255524093267933,0.4255524093267933,-0.2075557781713961,230.0431280034016,163.87801324573536)" opacity="0.73"></path><path d="M808 510H858C886 510 908 532 908 560H858C830 560 808 538 808 510Z " transform="matrix(0.03622208708439122,-0.5179999785154352,0.5179999785154352,0.03622208708439122,549.7914607758346,960.0651649760941)" opacity="0.80"></path><path d="M300 44H350C378 44 400 66 400 94H350C322 94 300 72 300 44Z " transform="matrix(0.01801019417847548,-0.5157444821693115,0.5157444821693115,0.01801019417847548,308.1100627678511,248.26786536094417)" opacity="0.79"></path><path d="M107 154H157C185 154 207 176 207 204H157C129 204 107 182 107 154Z " transform="matrix(-0.3088614656457192,-0.31983541043792657,0.31983541043792657,-0.3088614656457192,148.24071163798905,284.5003617893382)" opacity="0.68"></path><path d="M859 719H909C937 719 959 741 959 769H909C881 769 859 747 859 719Z " transform="matrix(-0.008909828822108614,-0.5104437513552373,0.5104437513552373,-0.008909828822108614,537.3288833910001,1214.6222826255596)" opacity="0.78"></path><path d="M663 173H713C741 173 763 195 763 223H713C685 223 663 201 663 173Z " transform="matrix(0.12932744271130509,-0.5187040414094524,0.5187040414094524,0.12932744271130509,518.0861331477679,542.2291478681011)" opacity="0.82"></path><path d="M1319 562H1369C1397 562 1419 584 1419 612H1369C1341 612 1319 590 1319 562Z " transform="matrix(-0.25154896646480635,-0.3873514401429249,0.3873514401429249,-0.25154896646480635,1485.995239726423,1264.9433648705055)" opacity="0.71"></path><path d="M4 686H54C82 686 104 708 104 736H54C26 736 4 714 4 686Z " transform="matrix(-0.3845618646821822,-0.060908615707847426,0.060908615707847426,-0.3845618646821822,31.46031492455832,987.7125510372553)" filter="url(#llleaves-blur-2)" opacity="0.60"></path><path d="M756 406H806C834 406 856 428 856 456H806C778 456 756 434 756 406Z " transform="matrix(0.06379597350295223,-0.51957650891793,0.51957650891793,0.06379597350295223,530.6429700129927,822.2826016080792)" opacity="0.80"></path><path d="M451 36H501C529 36 551 58 551 86H501C473 86 451 64 451 36Z " transform="matrix(0.21389428129096028,-0.5039033486154805,0.5039033486154805,0.21389428129096028,363.10086080768457,300.4080264976071)" opacity="0.84"></path><path d="M1115 47H1165C1193 47 1215 69 1215 97H1165C1137 97 1115 75 1115 47Z " transform="matrix(-0.026555151282435668,-0.5067024713834515,0.5067024713834515,-0.026555151282435668,1159.454173304429,664.2203500540562)" opacity="0.78"></path><path d="M512 152H562C590 152 612 174 612 202H562C534 202 512 180 512 152Z " transform="matrix(0.20452707635381484,-0.5062222778509982,0.5062222778509982,0.20452707635381484,357.45443990952936,425.2956276376358)" opacity="0.84"></path><path d="M995 578H1045C1073 578 1095 600 1095 628H1045C1017 628 995 606 995 578Z " transform="matrix(-0.12673243745949878,-0.4729718955658949,0.4729718955658949,-0.12673243745949878,892.2333441189415,1173.675290654438)" opacity="0.75"></path><path d="M224 189H274C302 189 324 211 324 239H274C246 239 224 217 224 189Z " transform="matrix(-0.11893048311482522,-0.47700411409314764,0.47700411409314764,-0.11893048311482522,204.50807195752853,370.15025064809504)" opacity="0.76"></path><path d="M377 413H427C455 413 477 435 477 463H427C399 463 377 441 377 413Z " transform="matrix(0.11028241581462857,-0.5188379739875264,0.5188379739875264,0.11028241581462857,152.65837584061705,611.2401167658666)" opacity="0.82"></path><path d="M189 442H239C267 442 289 464 289 492H239C211 492 189 470 189 442Z " transform="matrix(-0.1723615144136309,-0.4490170963730123,0.4490170963730123,-0.1723615144136309,70.50341793866104,654.8079132643156)" opacity="0.74"></path><path d="M562 580H612C640 580 662 602 662 630H612C584 630 562 608 562 580Z " transform="matrix(0.18562596970355966,-0.5100031602248989,0.5100031602248989,0.18562596970355966,189.8449946053576,804.8182223869845)" opacity="0.83"></path><path d="M233 599H283C311 599 333 621 333 649H283C255 649 233 627 233 599Z " transform="matrix(-0.11893048311482522,-0.47700411409314764,0.47700411409314764,-0.11893048311482522,19.0067595273714,833.2047857520116)" opacity="0.76"></path><path d="M1064 203H1114C1142 203 1164 225 1164 253H1114C1086 253 1064 231 1064 203Z " transform="matrix(-0.16506749109360053,-0.4535192044656935,0.4535192044656935,-0.16506749109360053,1194.482806460093,770.8557817441234)" opacity="0.74"></path></g></svg>